<svg xmlns="http://www.w3.org/2000/svg" viewBox="0 0 512 512" width="512" height="512">
  <defs>
    <linearGradient id="bg-gradient" x1="0%" y1="0%" x2="0%" y2="100%">
      <stop offset="0%" style="stop-color:#e9d5ff;stop-opacity:1" />
      <stop offset="100%" style="stop-color:#c084fc;stop-opacity:1" />
    </linearGradient>
    <filter id="shadow" x="-50%" y="-50%" width="200%" height="200%">
      <feDropShadow dx="0" dy="12" stdDeviation="16" flood-color="#581c87" flood-opacity="0.25"/>
    </filter>
  </defs>
  
  <rect x="48" y="48" width="416" height="416" rx="104" ry="104" fill="url(#bg-gradient)" filter="url(#shadow)" />

  <g fill="none" stroke="#581c87" stroke-width="28" stroke-linecap="round" stroke-linejoin="round" transform="translate(120, 120) scale(0.58)">
    <ellipse cx="128" cy="300" rx="128" ry="64" />
    <path d="M0,300 v70 c0,35.3 57.3,64 128,64 s128,-28.7 128,-64 v-70" />
    <path d="M0,370 v70 c0,35.3 57.3,64 128,64 s128,-28.7 128,-64 v-70" />

    <path d="M300,320 L480,140" stroke-width="34"/>
    <path d="M480,140 L320,140" stroke-width="34" />
    <path d="M480,140 L480,300" stroke-width="34"/>
  </g>
</svg>